<svg xmlns="http://www.w3.org/2000/svg" xmlns:xlink="http://www.w3.org/1999/xlink" width="800" zoomAndPan="magnify" viewBox="0 0 600 187.499995" height="250" preserveAspectRatio="xMidYMid meet" version="1.0"><defs><filter x="0%" y="0%" width="100%" height="100%" id="3ec529c7d4"><feColorMatrix values="0 0 0 0 1 0 0 0 0 1 0 0 0 0 1 0 0 0 1 0" color-interpolation-filters="sRGB"/></filter><g/><clipPath id="69bcbc5d19"><path d="M 0.796875 0 L 599.199219 0 L 599.199219 187 L 0.796875 187 Z M 0.796875 0 " clip-rule="nonzero"/></clipPath><clipPath id="f0f1626105"><path d="M 0.796875 0 L 599.199219 0 L 599.199219 187 L 0.796875 187 Z M 0.796875 0 " clip-rule="nonzero"/></clipPath><clipPath id="93109ac343"><path d="M 0.796875 0 L 599.199219 0 L 599.199219 187 L 0.796875 187 Z M 0.796875 0 " clip-rule="nonzero"/></clipPath><clipPath id="b3cad826b4"><path d="M 74.421875 0 L 465.761719 0 L 465.761719 187 L 74.421875 187 Z M 74.421875 0 " clip-rule="nonzero"/></clipPath><linearGradient x1="11.267007" gradientTransform="matrix(0.428343, 0, 0, 0.428146, 69.597419, 10.320325)" y1="140" x2="924.87302" gradientUnits="userSpaceOnUse" y2="140" id="8956f0c6e1"><stop stop-opacity="1" stop-color="rgb(97.24884%, 3.529358%, 21.958923%)" offset="0"/><stop stop-opacity="1" stop-color="rgb(97.24884%, 3.529358%, 21.958923%)" offset="0.25"/><stop stop-opacity="1" stop-color="rgb(97.24884%, 3.529358%, 21.958923%)" offset="0.375"/><stop stop-opacity="1" stop-color="rgb(97.24884%, 3.529358%, 21.958923%)" offset="0.4375"/><stop stop-opacity="1" stop-color="rgb(96.870422%, 5.549622%, 23.50769%)" offset="0.441406"/><stop stop-opacity="1" stop-color="rgb(96.49353%, 7.571411%, 25.057983%)" offset="0.445312"/><stop stop-opacity="1" stop-color="rgb(95.986938%, 10.279846%, 27.133179%)" offset="0.449219"/><stop stop-opacity="1" stop-color="rgb(95.481873%, 12.988281%, 29.208374%)" offset="0.453125"/><stop stop-opacity="1" stop-color="rgb(94.975281%, 15.696716%, 31.283569%)" offset="0.457031"/><stop stop-opacity="1" stop-color="rgb(94.470215%, 18.405151%, 33.360291%)" offset="0.460938"/><stop stop-opacity="1" stop-color="rgb(93.963623%, 21.113586%, 35.435486%)" offset="0.464844"/><stop stop-opacity="1" stop-color="rgb(93.457031%, 23.822021%, 37.512207%)" offset="0.46875"/><stop stop-opacity="1" stop-color="rgb(92.950439%, 26.530457%, 39.587402%)" offset="0.472656"/><stop stop-opacity="1" stop-color="rgb(92.445374%, 29.238892%, 41.664124%)" offset="0.476563"/><stop stop-opacity="1" stop-color="rgb(91.938782%, 31.947327%, 43.739319%)" offset="0.480469"/><stop stop-opacity="1" stop-color="rgb(91.433716%, 34.655762%, 45.81604%)" offset="0.484375"/><stop stop-opacity="1" stop-color="rgb(90.927124%, 37.364197%, 47.891235%)" offset="0.488281"/><stop stop-opacity="1" stop-color="rgb(90.422058%, 40.072632%, 49.967957%)" offset="0.492188"/><stop stop-opacity="1" stop-color="rgb(89.915466%, 42.781067%, 52.043152%)" offset="0.496094"/><stop stop-opacity="1" stop-color="rgb(89.408875%, 45.489502%, 54.119873%)" offset="0.5"/><stop stop-opacity="1" stop-color="rgb(90.092468%, 49.008179%, 57.080078%)" offset="0.503906"/><stop stop-opacity="1" stop-color="rgb(90.776062%, 52.526855%, 60.041809%)" offset="0.507812"/><stop stop-opacity="1" stop-color="rgb(91.459656%, 56.044006%, 63.00354%)" offset="0.511719"/><stop stop-opacity="1" stop-color="rgb(92.14325%, 59.562683%, 65.965271%)" offset="0.515625"/><stop stop-opacity="1" stop-color="rgb(92.826843%, 63.08136%, 68.925476%)" offset="0.519531"/><stop stop-opacity="1" stop-color="rgb(93.510437%, 66.600037%, 71.887207%)" offset="0.523438"/><stop stop-opacity="1" stop-color="rgb(94.194031%, 70.118713%, 74.848938%)" offset="0.527344"/><stop stop-opacity="1" stop-color="rgb(94.877625%, 73.63739%, 77.810669%)" offset="0.53125"/><stop stop-opacity="1" stop-color="rgb(95.561218%, 77.156067%, 80.7724%)" offset="0.535156"/><stop stop-opacity="1" stop-color="rgb(96.244812%, 80.674744%, 83.734131%)" offset="0.539062"/><stop stop-opacity="1" stop-color="rgb(96.928406%, 84.191895%, 86.694336%)" offset="0.542969"/><stop stop-opacity="1" stop-color="rgb(97.612%, 87.710571%, 89.656067%)" offset="0.546875"/><stop stop-opacity="1" stop-color="rgb(98.295593%, 91.229248%, 92.617798%)" offset="0.550781"/><stop stop-opacity="1" stop-color="rgb(98.979187%, 94.747925%, 95.579529%)" offset="0.554688"/><stop stop-opacity="1" stop-color="rgb(99.488831%, 97.373962%, 97.789001%)" offset="0.558594"/><stop stop-opacity="1" stop-color="rgb(100%, 100%, 100%)" offset="0.5625"/><stop stop-opacity="1" stop-color="rgb(100%, 100%, 100%)" offset="0.625"/><stop stop-opacity="1" stop-color="rgb(100%, 100%, 100%)" offset="0.75"/><stop stop-opacity="1" stop-color="rgb(100%, 100%, 100%)" offset="1"/></linearGradient><clipPath id="c1f27a1378"><rect x="0" width="600" y="0" height="187"/></clipPath><clipPath id="539b49ddda"><path d="M 0.796875 0 L 599.199219 0 L 599.199219 187 L 0.796875 187 Z M 0.796875 0 " clip-rule="nonzero"/></clipPath><clipPath id="22e5ecc641"><rect x="0" width="600" y="0" height="187"/></clipPath><clipPath id="ad88d6101d"><rect x="0" width="600" y="0" height="187"/></clipPath><mask id="d987d01707"><g filter="url(#3ec529c7d4)"><g transform="matrix(1, 0, 0, 1, 0.000000000000000111, 0)"><g clip-path="url(#ad88d6101d)"><g clip-path="url(#539b49ddda)"><g transform="matrix(1, 0, 0, 1, 0.000000000000000111, 0)"><g clip-path="url(#22e5ecc641)"><g fill="#000000" fill-opacity="1"><g transform="translate(246.449424, 103.443009)"><g><path d="M 38.3125 0 L -2.0625 0 L -0.25 -8.9375 L 19.765625 -26.734375 C 24.804688 -31.179688 28.285156 -34.738281 30.203125 -37.40625 C 32.117188 -40.082031 33.078125 -42.597656 33.078125 -44.953125 C 33.078125 -47.046875 32.5 -48.644531 31.34375 -49.75 C 30.195312 -50.851562 28.660156 -51.40625 26.734375 -51.40625 C 24.890625 -51.40625 22.992188 -50.9375 21.046875 -50 C 19.097656 -49.0625 16.695312 -47.40625 13.84375 -45.03125 L 7.71875 -53.546875 C 11.414062 -56.679688 14.941406 -58.910156 18.296875 -60.234375 C 21.648438 -61.566406 25.148438 -62.234375 28.796875 -62.234375 C 34.109375 -62.234375 38.316406 -60.863281 41.421875 -58.125 C 44.523438 -55.382812 46.078125 -51.757812 46.078125 -47.25 C 46.078125 -44.257812 45.503906 -41.445312 44.359375 -38.8125 C 43.210938 -36.1875 41.5 -33.554688 39.21875 -30.921875 C 36.9375 -28.296875 33.207031 -24.875 28.03125 -20.65625 L 16.75 -11.328125 L 16.75 -10.90625 L 40.578125 -10.90625 Z M 38.3125 0 "/></g></g></g></g></g></g></g></g></g></mask><clipPath id="75cf88e385"><path d="M 74.421875 0 L 465.761719 0 L 465.761719 187 L 74.421875 187 Z M 74.421875 0 " clip-rule="nonzero"/></clipPath><clipPath id="910a86d5f0"><rect x="0" width="600" y="0" height="187"/></clipPath><clipPath id="353280387d"><rect x="0" width="600" y="0" height="187"/></clipPath><clipPath id="6b399483c8"><rect x="0" width="600" y="0" height="187"/></clipPath><clipPath id="f4eecd587d"><path d="M 0.511719 9 L 16 9 L 16 26 L 0.511719 26 Z M 0.511719 9 " clip-rule="nonzero"/></clipPath><clipPath id="9d709a058c"><path d="M 89 8 L 103.4375 8 L 103.4375 26 L 89 26 Z M 89 8 " clip-rule="nonzero"/></clipPath><clipPath id="955b117ce1"><rect x="0" width="104" y="0" height="33"/></clipPath></defs><g clip-path="url(#69bcbc5d19)"><g transform="matrix(1, 0, 0, 1, 0.000000000000000111, 0)"><g clip-path="url(#6b399483c8)"><g fill="#f80938" fill-opacity="1"><g transform="translate(69.71382, 103.443009)"><g><path d="M 42.21875 -42.71875 C 40.9375 -38.632812 39.328125 -34.453125 37.390625 -30.171875 L 23.796875 0 L 9.609375 0 L 7.71875 -61.359375 L 19.765625 -61.359375 L 20.015625 -27.875 C 20.015625 -26.414062 19.957031 -23.992188 19.84375 -20.609375 C 19.738281 -17.222656 19.601562 -14.785156 19.4375 -13.296875 L 19.6875 -13.296875 C 20.300781 -15.085938 21.238281 -17.613281 22.5 -20.875 C 23.757812 -24.132812 24.597656 -26.171875 25.015625 -26.984375 L 40.5 -61.359375 L 51.828125 -61.359375 L 52.71875 -24.71875 C 52.71875 -20.632812 52.585938 -16.828125 52.328125 -13.296875 L 52.59375 -13.296875 C 53.789062 -16.910156 55.617188 -21.796875 58.078125 -27.953125 L 71.9375 -61.359375 L 84.90625 -61.359375 L 57.75 0 L 43.234375 0 L 42.3125 -30.265625 L 42.21875 -36.09375 C 42.21875 -38.550781 42.273438 -40.757812 42.390625 -42.71875 Z M 42.21875 -42.71875 "/></g></g><g transform="translate(146.559248, 103.443009)"><g><path d="M 36.515625 0 L 2.21875 0 L 15.1875 -61.359375 L 49.53125 -61.359375 L 47.25 -50.703125 L 25.765625 -50.703125 L 22.953125 -37.234375 L 42.984375 -37.234375 L 40.671875 -26.5625 L 20.65625 -26.5625 L 17.296875 -10.75 L 38.78125 -10.75 Z M 36.515625 0 "/></g></g><g transform="translate(193.144953, 103.443009)"><g><path d="M 33.078125 -61.359375 C 39.484375 -61.359375 44.320312 -60.21875 47.59375 -57.9375 C 50.863281 -55.65625 52.5 -52.25 52.5 -47.71875 C 52.5 -43.519531 51.335938 -40.054688 49.015625 -37.328125 C 46.691406 -34.597656 43.390625 -32.785156 39.109375 -31.890625 L 39.109375 -31.640625 C 41.910156 -30.910156 44.144531 -29.5625 45.8125 -27.59375 C 47.476562 -25.625 48.3125 -23.097656 48.3125 -20.015625 C 48.3125 -13.609375 46.171875 -8.671875 41.890625 -5.203125 C 37.609375 -1.734375 31.6875 0 24.125 0 L 2.21875 0 L 15.1875 -61.359375 Z M 22.875 -37.0625 L 29.125 -37.0625 C 32.507812 -37.0625 35.046875 -37.738281 36.734375 -39.09375 C 38.429688 -40.445312 39.28125 -42.398438 39.28125 -44.953125 C 39.28125 -48.785156 36.90625 -50.703125 32.15625 -50.703125 L 25.765625 -50.703125 Z M 17.296875 -10.75 L 24.84375 -10.75 C 28.113281 -10.75 30.679688 -11.554688 32.546875 -13.171875 C 34.410156 -14.796875 35.34375 -17.050781 35.34375 -19.9375 C 35.34375 -24.46875 32.78125 -26.734375 27.65625 -26.734375 L 20.734375 -26.734375 Z M 17.296875 -10.75 "/></g></g></g><g fill="#ffffff" fill-opacity="1"><g transform="translate(293.794338, 103.443009)"><g><path d="M 35.171875 -15.484375 L 58.296875 -61.359375 L 76.046875 -61.359375 L 63.078125 0 L 51.328125 0 L 57.40625 -29.046875 C 58.894531 -35.953125 60.367188 -42.117188 61.828125 -47.546875 L 61.609375 -47.546875 L 37.734375 0 L 25.9375 0 L 23.375 -47.546875 L 23.203125 -47.546875 C 22.898438 -45.085938 22.367188 -41.859375 21.609375 -37.859375 C 20.859375 -33.859375 18.242188 -21.238281 13.765625 0 L 2.21875 0 L 15.1875 -61.359375 L 32.15625 -61.359375 L 35 -15.484375 Z M 35.171875 -15.484375 "/></g></g><g transform="translate(369.422661, 103.443009)"><g><path d="M 21.90625 -32.484375 L 24.265625 -32.484375 C 28.234375 -32.484375 31.359375 -33.445312 33.640625 -35.375 C 35.921875 -37.3125 37.0625 -39.898438 37.0625 -43.140625 C 37.0625 -48.179688 34.332031 -50.703125 28.875 -50.703125 L 25.765625 -50.703125 Z M 49.9375 -43.484375 C 49.9375 -36.734375 47.566406 -31.4375 42.828125 -27.59375 C 38.085938 -23.75 31.546875 -21.828125 23.203125 -21.828125 L 19.59375 -21.828125 L 15.03125 0 L 2.21875 0 L 15.1875 -61.359375 L 29.375 -61.359375 C 36.144531 -61.359375 41.265625 -59.867188 44.734375 -56.890625 C 48.203125 -53.910156 49.9375 -49.441406 49.9375 -43.484375 Z M 49.9375 -43.484375 "/></g></g><g transform="translate(419.281956, 103.443009)"><g><path d="M 36.515625 0 L 2.21875 0 L 15.1875 -61.359375 L 49.53125 -61.359375 L 47.25 -50.703125 L 25.765625 -50.703125 L 22.953125 -37.234375 L 42.984375 -37.234375 L 40.671875 -26.5625 L 20.65625 -26.5625 L 17.296875 -10.75 L 38.78125 -10.75 Z M 36.515625 0 "/></g></g><g transform="translate(465.867661, 103.443009)"><g><path d="M 31.640625 -34.453125 L 55.28125 -34.453125 L 48.46875 -2.46875 C 44.71875 -1.1875 41.238281 -0.316406 38.03125 0.140625 C 34.832031 0.609375 31.445312 0.84375 27.875 0.84375 C 20.625 0.84375 15.023438 -1.210938 11.078125 -5.328125 C 7.128906 -9.441406 5.15625 -15.347656 5.15625 -23.046875 C 5.15625 -30.535156 6.648438 -37.3125 9.640625 -43.375 C 12.640625 -49.4375 16.851562 -54.109375 22.28125 -57.390625 C 27.707031 -60.679688 33.976562 -62.328125 41.09375 -62.328125 C 47.1875 -62.328125 52.921875 -60.941406 58.296875 -58.171875 L 53.46875 -47.640625 C 51.394531 -48.753906 49.320312 -49.644531 47.25 -50.3125 C 45.1875 -50.988281 42.9375 -51.328125 40.5 -51.328125 C 36.21875 -51.328125 32.390625 -50.164062 29.015625 -47.84375 C 25.648438 -45.519531 23.007812 -42.210938 21.09375 -37.921875 C 19.175781 -33.628906 18.21875 -29.003906 18.21875 -24.046875 C 18.21875 -19.234375 19.226562 -15.703125 21.25 -13.453125 C 23.28125 -11.203125 26.394531 -10.078125 30.59375 -10.078125 C 32.71875 -10.078125 35.097656 -10.410156 37.734375 -11.078125 L 40.5 -23.625 L 29.296875 -23.625 Z M 31.640625 -34.453125 "/></g></g></g><g clip-path="url(#f0f1626105)"><g transform="matrix(1, 0, 0, 1, 0.000000000000000111, 0)"><g clip-path="url(#353280387d)"><g clip-path="url(#93109ac343)"><g mask="url(#d987d01707)"><g transform="matrix(1, 0, 0, 1, 0.000000000000000111, 0)"><g clip-path="url(#910a86d5f0)"><g clip-path="url(#75cf88e385)"><path fill="url(#8956f0c6e1)" d="M 74.421875 0 L 74.421875 187 L 465.761719 187 L 465.761719 0 Z M 74.421875 0 " fill-rule="nonzero"/></g></g></g></g></g></g></g></g></g></g></g><g transform="matrix(1, 0, 0, 1, 423, 105)"><g clip-path="url(#955b117ce1)"><g clip-path="url(#f4eecd587d)"><g fill="#ffffff" fill-opacity="1"><g transform="translate(2.285669, 25.384548)"><g><path d="M 9.390625 -3.875 L 4.109375 -3.875 L 2.203125 0 L -1.375 0 L 7.171875 -16.359375 L 11.328125 -16.359375 L 12.96875 0 L 9.65625 0 Z M 9.21875 -6.78125 L 8.921875 -10.671875 C 8.847656 -11.648438 8.8125 -12.59375 8.8125 -13.5 L 8.8125 -13.90625 C 8.488281 -13.007812 8.085938 -12.0625 7.609375 -11.0625 L 5.5 -6.78125 Z M 9.21875 -6.78125 "/></g></g></g></g><g fill="#ffffff" fill-opacity="1"><g transform="translate(16.623102, 25.384548)"><g><path d="M 10.890625 0 L 7.53125 0 L 9.0625 -7.28125 C 9.175781 -7.78125 9.234375 -8.222656 9.234375 -8.609375 C 9.234375 -9.515625 8.832031 -9.96875 8.03125 -9.96875 C 7.351562 -9.96875 6.734375 -9.546875 6.171875 -8.703125 C 5.617188 -7.859375 5.179688 -6.675781 4.859375 -5.15625 L 3.765625 0 L 0.40625 0 L 3.046875 -12.46875 L 5.625 -12.46875 L 5.390625 -10.15625 L 5.453125 -10.15625 C 6.535156 -11.851562 7.851562 -12.703125 9.40625 -12.703125 C 10.4375 -12.703125 11.226562 -12.390625 11.78125 -11.765625 C 12.34375 -11.140625 12.625 -10.253906 12.625 -9.109375 C 12.625 -8.566406 12.539062 -7.894531 12.375 -7.09375 Z M 10.890625 0 "/></g></g></g><g fill="#ffffff" fill-opacity="1"><g transform="translate(30.414245, 25.384548)"><g><path d="M 4.53125 0.21875 C 3.4375 0.21875 2.570312 -0.175781 1.9375 -0.96875 C 1.3125 -1.757812 1 -2.875 1 -4.3125 C 1 -5.769531 1.265625 -7.160156 1.796875 -8.484375 C 2.328125 -9.816406 3.023438 -10.851562 3.890625 -11.59375 C 4.765625 -12.332031 5.726562 -12.703125 6.78125 -12.703125 C 7.382812 -12.703125 7.90625 -12.5625 8.34375 -12.28125 C 8.789062 -12.007812 9.210938 -11.539062 9.609375 -10.875 L 9.703125 -10.875 L 9.71875 -11.1875 C 9.757812 -12 9.851562 -12.722656 10 -13.359375 L 10.84375 -17.34375 L 14.203125 -17.34375 L 10.515625 0 L 7.96875 0 L 8.125 -1.609375 L 8.078125 -1.609375 C 7.554688 -0.960938 7.003906 -0.492188 6.421875 -0.203125 C 5.847656 0.078125 5.21875 0.21875 4.53125 0.21875 Z M 5.9375 -2.484375 C 6.425781 -2.484375 6.898438 -2.738281 7.359375 -3.25 C 7.828125 -3.757812 8.203125 -4.4375 8.484375 -5.28125 C 8.765625 -6.125 8.90625 -7.035156 8.90625 -8.015625 C 8.90625 -8.609375 8.765625 -9.082031 8.484375 -9.4375 C 8.203125 -9.789062 7.820312 -9.96875 7.34375 -9.96875 C 6.84375 -9.96875 6.363281 -9.703125 5.90625 -9.171875 C 5.445312 -8.640625 5.082031 -7.929688 4.8125 -7.046875 C 4.539062 -6.171875 4.40625 -5.304688 4.40625 -4.453125 C 4.40625 -3.140625 4.914062 -2.484375 5.9375 -2.484375 Z M 5.9375 -2.484375 "/></g></g></g><g fill="#ffffff" fill-opacity="1"><g transform="translate(43.98241, 25.384548)"><g/></g></g><g fill="#ffffff" fill-opacity="1"><g transform="translate(49.913604, 25.384548)"><g><path d="M 3.984375 0 L 0.59375 0 L 4.03125 -16.296875 L 13.109375 -16.296875 L 12.5 -13.46875 L 6.84375 -13.46875 L 5.96875 -9.265625 L 11.234375 -9.265625 L 10.609375 -6.4375 L 5.34375 -6.4375 Z M 3.984375 0 "/></g></g></g><g fill="#ffffff" fill-opacity="1"><g transform="translate(62.032417, 25.384548)"><g><path d="M 0.59375 0 L 4.03125 -16.296875 L 7.453125 -16.296875 L 4.59375 -2.859375 L 10.296875 -2.859375 L 9.703125 0 Z M 0.59375 0 "/></g></g></g><g fill="#ffffff" fill-opacity="1"><g transform="translate(73.861361, 25.384548)"><g><path d="M 9.390625 -3.875 L 4.109375 -3.875 L 2.203125 0 L -1.375 0 L 7.171875 -16.359375 L 11.328125 -16.359375 L 12.96875 0 L 9.65625 0 Z M 9.21875 -6.78125 L 8.921875 -10.671875 C 8.847656 -11.648438 8.8125 -12.59375 8.8125 -13.5 L 8.8125 -13.90625 C 8.488281 -13.007812 8.085938 -12.0625 7.609375 -11.0625 L 5.5 -6.78125 Z M 9.21875 -6.78125 "/></g></g></g><g clip-path="url(#9d709a058c)"><g fill="#ffffff" fill-opacity="1"><g transform="translate(88.198794, 25.384548)"><g><path d="M 10.09375 -13.671875 C 9.101562 -13.671875 8.21875 -13.367188 7.4375 -12.765625 C 6.65625 -12.171875 6.023438 -11.285156 5.546875 -10.109375 C 5.078125 -8.941406 4.84375 -7.6875 4.84375 -6.34375 C 4.84375 -5.101562 5.09375 -4.179688 5.59375 -3.578125 C 6.101562 -2.972656 6.914062 -2.671875 8.03125 -2.671875 C 9.113281 -2.671875 10.367188 -2.957031 11.796875 -3.53125 L 11.796875 -0.640625 C 10.328125 -0.0664062 8.84375 0.21875 7.34375 0.21875 C 5.457031 0.21875 3.988281 -0.332031 2.9375 -1.4375 C 1.894531 -2.550781 1.375 -4.125 1.375 -6.15625 C 1.375 -8.101562 1.757812 -9.894531 2.53125 -11.53125 C 3.300781 -13.175781 4.332031 -14.421875 5.625 -15.265625 C 6.914062 -16.117188 8.40625 -16.546875 10.09375 -16.546875 C 11.019531 -16.546875 11.84375 -16.460938 12.5625 -16.296875 C 13.28125 -16.128906 14.050781 -15.820312 14.875 -15.375 L 13.5625 -12.59375 C 12.78125 -13.03125 12.128906 -13.316406 11.609375 -13.453125 C 11.097656 -13.597656 10.59375 -13.671875 10.09375 -13.671875 Z M 10.09375 -13.671875 "/></g></g></g></g></g></g><g fill="#444444" fill-opacity="1"><g transform="translate(148.427019, 149.960067)"><g><path d="M 6.703125 -2.609375 C 6.703125 -1.753906 6.398438 -1.082031 5.796875 -0.59375 C 5.191406 -0.113281 4.34375 0.125 3.25 0.125 C 2.25 0.125 1.367188 -0.0625 0.609375 -0.4375 L 0.609375 -2.28125 C 1.234375 -2 1.765625 -1.800781 2.203125 -1.6875 C 2.640625 -1.570312 3.039062 -1.515625 3.40625 -1.515625 C 3.84375 -1.515625 4.175781 -1.597656 4.40625 -1.765625 C 4.644531 -1.929688 4.765625 -2.175781 4.765625 -2.5 C 4.765625 -2.6875 4.710938 -2.847656 4.609375 -2.984375 C 4.503906 -3.128906 4.351562 -3.269531 4.15625 -3.40625 C 3.957031 -3.539062 3.550781 -3.753906 2.9375 -4.046875 C 2.363281 -4.316406 1.929688 -4.570312 1.640625 -4.8125 C 1.359375 -5.0625 1.132812 -5.347656 0.96875 -5.671875 C 0.800781 -6.003906 0.71875 -6.394531 0.71875 -6.84375 C 0.71875 -7.664062 0.992188 -8.3125 1.546875 -8.78125 C 2.109375 -9.257812 2.890625 -9.5 3.890625 -9.5 C 4.367188 -9.5 4.828125 -9.441406 5.265625 -9.328125 C 5.710938 -9.210938 6.179688 -9.050781 6.671875 -8.84375 L 6.03125 -7.296875 C 5.53125 -7.503906 5.113281 -7.644531 4.78125 -7.71875 C 4.457031 -7.800781 4.132812 -7.84375 3.8125 -7.84375 C 3.4375 -7.84375 3.148438 -7.753906 2.953125 -7.578125 C 2.753906 -7.410156 2.65625 -7.1875 2.65625 -6.90625 C 2.65625 -6.726562 2.691406 -6.570312 2.765625 -6.4375 C 2.847656 -6.3125 2.976562 -6.1875 3.15625 -6.0625 C 3.332031 -5.945312 3.753906 -5.726562 4.421875 -5.40625 C 5.296875 -4.988281 5.894531 -4.566406 6.21875 -4.140625 C 6.539062 -3.722656 6.703125 -3.210938 6.703125 -2.609375 Z M 6.703125 -2.609375 "/></g></g></g><g fill="#444444" fill-opacity="1"><g transform="translate(155.656108, 149.960067)"><g><path d="M 0.9375 -9.015625 C 0.9375 -9.648438 1.289062 -9.96875 2 -9.96875 C 2.707031 -9.96875 3.0625 -9.648438 3.0625 -9.015625 C 3.0625 -8.710938 2.972656 -8.476562 2.796875 -8.3125 C 2.617188 -8.144531 2.351562 -8.0625 2 -8.0625 C 1.289062 -8.0625 0.9375 -8.378906 0.9375 -9.015625 Z M 2.984375 0 L 1.03125 0 L 1.03125 -7.171875 L 2.984375 -7.171875 Z M 2.984375 0 "/></g></g></g><g fill="#444444" fill-opacity="1"><g transform="translate(159.661593, 149.960067)"><g><path d="M 7.4375 0 L 5.484375 0 L 5.484375 -4.1875 C 5.484375 -4.695312 5.394531 -5.082031 5.21875 -5.34375 C 5.050781 -5.601562 4.78125 -5.734375 4.40625 -5.734375 C 3.90625 -5.734375 3.539062 -5.550781 3.3125 -5.1875 C 3.09375 -4.820312 2.984375 -4.21875 2.984375 -3.375 L 2.984375 0 L 1.03125 0 L 1.03125 -7.171875 L 2.515625 -7.171875 L 2.78125 -6.25 L 2.890625 -6.25 C 3.078125 -6.570312 3.351562 -6.828125 3.71875 -7.015625 C 4.082031 -7.203125 4.5 -7.296875 4.96875 -7.296875 C 6.039062 -7.296875 6.769531 -6.945312 7.15625 -6.25 L 7.328125 -6.25 C 7.515625 -6.582031 7.796875 -6.835938 8.171875 -7.015625 C 8.546875 -7.203125 8.96875 -7.296875 9.4375 -7.296875 C 10.25 -7.296875 10.863281 -7.085938 11.28125 -6.671875 C 11.695312 -6.253906 11.90625 -5.585938 11.90625 -4.671875 L 11.90625 0 L 9.953125 0 L 9.953125 -4.1875 C 9.953125 -4.695312 9.863281 -5.082031 9.6875 -5.34375 C 9.507812 -5.601562 9.238281 -5.734375 8.875 -5.734375 C 8.394531 -5.734375 8.035156 -5.5625 7.796875 -5.21875 C 7.554688 -4.875 7.4375 -4.332031 7.4375 -3.59375 Z M 7.4375 0 "/></g></g></g><g fill="#444444" fill-opacity="1"><g transform="translate(172.54963, 149.960067)"><g><path d="M 4.953125 0.125 C 4.117188 0.125 3.460938 -0.175781 2.984375 -0.78125 L 2.875 -0.78125 C 2.945312 -0.1875 2.984375 0.15625 2.984375 0.25 L 2.984375 3.15625 L 1.03125 3.15625 L 1.03125 -7.171875 L 2.609375 -7.171875 L 2.890625 -6.234375 L 2.984375 -6.234375 C 3.441406 -6.941406 4.117188 -7.296875 5.015625 -7.296875 C 5.859375 -7.296875 6.519531 -6.96875 7 -6.3125 C 7.476562 -5.664062 7.71875 -4.757812 7.71875 -3.59375 C 7.71875 -2.832031 7.601562 -2.164062 7.375 -1.59375 C 7.15625 -1.03125 6.835938 -0.601562 6.421875 -0.3125 C 6.003906 -0.0195312 5.515625 0.125 4.953125 0.125 Z M 4.390625 -5.734375 C 3.898438 -5.734375 3.546875 -5.582031 3.328125 -5.28125 C 3.109375 -4.988281 2.992188 -4.5 2.984375 -3.8125 L 2.984375 -3.609375 C 2.984375 -2.835938 3.097656 -2.285156 3.328125 -1.953125 C 3.554688 -1.617188 3.914062 -1.453125 4.40625 -1.453125 C 5.28125 -1.453125 5.71875 -2.175781 5.71875 -3.625 C 5.71875 -4.320312 5.609375 -4.847656 5.390625 -5.203125 C 5.179688 -5.554688 4.847656 -5.734375 4.390625 -5.734375 Z M 4.390625 -5.734375 "/></g></g></g><g fill="#444444" fill-opacity="1"><g transform="translate(180.855392, 149.960067)"><g><path d="M 2.984375 0 L 1.03125 0 L 1.03125 -9.96875 L 2.984375 -9.96875 Z M 2.984375 0 "/></g></g></g><g fill="#444444" fill-opacity="1"><g transform="translate(184.860877, 149.960067)"><g><path d="M 4 -5.90625 C 3.582031 -5.90625 3.253906 -5.773438 3.015625 -5.515625 C 2.785156 -5.253906 2.648438 -4.878906 2.609375 -4.390625 L 5.359375 -4.390625 C 5.347656 -4.878906 5.21875 -5.253906 4.96875 -5.515625 C 4.726562 -5.773438 4.40625 -5.90625 4 -5.90625 Z M 4.265625 0.125 C 3.109375 0.125 2.207031 -0.191406 1.5625 -0.828125 C 0.914062 -1.460938 0.59375 -2.363281 0.59375 -3.53125 C 0.59375 -4.726562 0.890625 -5.65625 1.484375 -6.3125 C 2.085938 -6.96875 2.921875 -7.296875 3.984375 -7.296875 C 4.992188 -7.296875 5.78125 -7.003906 6.34375 -6.421875 C 6.90625 -5.847656 7.1875 -5.054688 7.1875 -4.046875 L 7.1875 -3.09375 L 2.5625 -3.09375 C 2.59375 -2.539062 2.757812 -2.109375 3.0625 -1.796875 C 3.375 -1.484375 3.804688 -1.328125 4.359375 -1.328125 C 4.785156 -1.328125 5.191406 -1.367188 5.578125 -1.453125 C 5.960938 -1.546875 6.363281 -1.691406 6.78125 -1.890625 L 6.78125 -0.375 C 6.445312 -0.207031 6.082031 -0.0820312 5.6875 0 C 5.300781 0.0820312 4.828125 0.125 4.265625 0.125 Z M 4.265625 0.125 "/></g></g></g><g fill="#444444" fill-opacity="1"><g transform="translate(192.615485, 149.960067)"><g><path d="M 6.03125 -2.125 C 6.03125 -1.394531 5.773438 -0.835938 5.265625 -0.453125 C 4.753906 -0.0664062 3.988281 0.125 2.96875 0.125 C 2.445312 0.125 2 0.0859375 1.625 0.015625 C 1.257812 -0.046875 0.921875 -0.144531 0.609375 -0.28125 L 0.609375 -1.90625 C 0.960938 -1.726562 1.367188 -1.582031 1.828125 -1.46875 C 2.285156 -1.351562 2.6875 -1.296875 3.03125 -1.296875 C 3.738281 -1.296875 4.09375 -1.503906 4.09375 -1.921875 C 4.09375 -2.066406 4.046875 -2.1875 3.953125 -2.28125 C 3.859375 -2.382812 3.695312 -2.492188 3.46875 -2.609375 C 3.238281 -2.734375 2.929688 -2.878906 2.546875 -3.046875 C 1.992188 -3.273438 1.585938 -3.488281 1.328125 -3.6875 C 1.066406 -3.882812 0.878906 -4.109375 0.765625 -4.359375 C 0.648438 -4.617188 0.59375 -4.929688 0.59375 -5.296875 C 0.59375 -5.929688 0.835938 -6.421875 1.328125 -6.765625 C 1.816406 -7.117188 2.515625 -7.296875 3.421875 -7.296875 C 4.285156 -7.296875 5.128906 -7.109375 5.953125 -6.734375 L 5.359375 -5.328125 C 4.992188 -5.484375 4.65625 -5.609375 4.34375 -5.703125 C 4.039062 -5.796875 3.722656 -5.84375 3.390625 -5.84375 C 2.816406 -5.84375 2.53125 -5.691406 2.53125 -5.390625 C 2.53125 -5.210938 2.625 -5.054688 2.8125 -4.921875 C 3 -4.796875 3.40625 -4.609375 4.03125 -4.359375 C 4.59375 -4.128906 5.003906 -3.914062 5.265625 -3.71875 C 5.523438 -3.519531 5.71875 -3.289062 5.84375 -3.03125 C 5.96875 -2.78125 6.03125 -2.476562 6.03125 -2.125 Z M 6.03125 -2.125 "/></g></g></g><g fill="#444444" fill-opacity="1"><g transform="translate(199.13961, 149.960067)"><g><path d="M 4.046875 -1.421875 C 4.390625 -1.421875 4.800781 -1.5 5.28125 -1.65625 L 5.28125 -0.203125 C 4.789062 0.015625 4.191406 0.125 3.484375 0.125 C 2.703125 0.125 2.128906 -0.0703125 1.765625 -0.46875 C 1.410156 -0.863281 1.234375 -1.457031 1.234375 -2.25 L 1.234375 -5.703125 L 0.296875 -5.703125 L 0.296875 -6.53125 L 1.375 -7.171875 L 1.9375 -8.6875 L 3.1875 -8.6875 L 3.1875 -7.171875 L 5.203125 -7.171875 L 5.203125 -5.703125 L 3.1875 -5.703125 L 3.1875 -2.25 C 3.1875 -1.96875 3.265625 -1.757812 3.421875 -1.625 C 3.578125 -1.488281 3.785156 -1.421875 4.046875 -1.421875 Z M 4.046875 -1.421875 "/></g></g></g><g fill="#444444" fill-opacity="1"><g transform="translate(204.83701, 149.960067)"><g/></g></g><g fill="#444444" fill-opacity="1"><g transform="translate(208.246474, 149.960067)"><g><path d="M 10.3125 0 L 8.046875 0 L 6.78125 -4.921875 C 6.726562 -5.097656 6.644531 -5.457031 6.53125 -6 C 6.414062 -6.550781 6.351562 -6.921875 6.34375 -7.109375 C 6.3125 -6.878906 6.242188 -6.507812 6.140625 -6 C 6.035156 -5.488281 5.957031 -5.125 5.90625 -4.90625 L 4.640625 0 L 2.390625 0 L 0 -9.375 L 1.953125 -9.375 L 3.15625 -4.25 C 3.363281 -3.3125 3.515625 -2.492188 3.609375 -1.796875 C 3.628906 -2.046875 3.6875 -2.425781 3.78125 -2.9375 C 3.875 -3.445312 3.960938 -3.84375 4.046875 -4.125 L 5.40625 -9.375 L 7.28125 -9.375 L 8.65625 -4.125 C 8.707031 -3.882812 8.78125 -3.519531 8.875 -3.03125 C 8.96875 -2.550781 9.035156 -2.140625 9.078125 -1.796875 C 9.117188 -2.128906 9.1875 -2.546875 9.28125 -3.046875 C 9.375 -3.546875 9.460938 -3.945312 9.546875 -4.25 L 10.734375 -9.375 L 12.6875 -9.375 Z M 10.3125 0 "/></g></g></g><g fill="#444444" fill-opacity="1"><g transform="translate(220.935833, 149.960067)"><g><path d="M 5.578125 0 L 5.203125 -0.96875 L 5.140625 -0.96875 C 4.816406 -0.5625 4.476562 -0.273438 4.125 -0.109375 C 3.78125 0.046875 3.328125 0.125 2.765625 0.125 C 2.078125 0.125 1.535156 -0.0664062 1.140625 -0.453125 C 0.742188 -0.847656 0.546875 -1.410156 0.546875 -2.140625 C 0.546875 -2.898438 0.8125 -3.457031 1.34375 -3.8125 C 1.875 -4.175781 2.675781 -4.378906 3.75 -4.421875 L 5 -4.453125 L 5 -4.78125 C 5 -5.5 4.628906 -5.859375 3.890625 -5.859375 C 3.316406 -5.859375 2.640625 -5.6875 1.859375 -5.34375 L 1.21875 -6.671875 C 2.039062 -7.097656 2.953125 -7.3125 3.953125 -7.3125 C 4.921875 -7.3125 5.660156 -7.101562 6.171875 -6.6875 C 6.679688 -6.269531 6.9375 -5.632812 6.9375 -4.78125 L 6.9375 0 Z M 5 -3.3125 L 4.25 -3.296875 C 3.675781 -3.273438 3.25 -3.171875 2.96875 -2.984375 C 2.695312 -2.796875 2.5625 -2.507812 2.5625 -2.125 C 2.5625 -1.570312 2.875 -1.296875 3.5 -1.296875 C 3.957031 -1.296875 4.320312 -1.425781 4.59375 -1.6875 C 4.863281 -1.945312 5 -2.296875 5 -2.734375 Z M 5 -3.3125 "/></g></g></g><g fill="#444444" fill-opacity="1"><g transform="translate(228.863483, 149.960067)"><g><path d="M 0 -7.171875 L 2.140625 -7.171875 L 3.5 -3.140625 C 3.613281 -2.785156 3.691406 -2.367188 3.734375 -1.890625 L 3.765625 -1.890625 C 3.816406 -2.328125 3.910156 -2.742188 4.046875 -3.140625 L 5.375 -7.171875 L 7.46875 -7.171875 L 4.4375 0.921875 C 4.15625 1.660156 3.753906 2.21875 3.234375 2.59375 C 2.722656 2.96875 2.125 3.15625 1.4375 3.15625 C 1.101562 3.15625 0.773438 3.117188 0.453125 3.046875 L 0.453125 1.5 C 0.679688 1.550781 0.9375 1.578125 1.21875 1.578125 C 1.5625 1.578125 1.863281 1.46875 2.125 1.25 C 2.382812 1.039062 2.585938 0.722656 2.734375 0.296875 L 2.84375 -0.046875 Z M 0 -7.171875 "/></g></g></g><g fill="#444444" fill-opacity="1"><g transform="translate(236.329702, 149.960067)"><g/></g></g><g fill="#444444" fill-opacity="1"><g transform="translate(239.739167, 149.960067)"><g><path d="M 4.046875 -1.421875 C 4.390625 -1.421875 4.800781 -1.5 5.28125 -1.65625 L 5.28125 -0.203125 C 4.789062 0.015625 4.191406 0.125 3.484375 0.125 C 2.703125 0.125 2.128906 -0.0703125 1.765625 -0.46875 C 1.410156 -0.863281 1.234375 -1.457031 1.234375 -2.25 L 1.234375 -5.703125 L 0.296875 -5.703125 L 0.296875 -6.53125 L 1.375 -7.171875 L 1.9375 -8.6875 L 3.1875 -8.6875 L 3.1875 -7.171875 L 5.203125 -7.171875 L 5.203125 -5.703125 L 3.1875 -5.703125 L 3.1875 -2.25 C 3.1875 -1.96875 3.265625 -1.757812 3.421875 -1.625 C 3.578125 -1.488281 3.785156 -1.421875 4.046875 -1.421875 Z M 4.046875 -1.421875 "/></g></g></g><g fill="#444444" fill-opacity="1"><g transform="translate(245.436566, 149.960067)"><g><path d="M 2.578125 -3.59375 C 2.578125 -2.882812 2.691406 -2.347656 2.921875 -1.984375 C 3.160156 -1.617188 3.539062 -1.4375 4.0625 -1.4375 C 4.582031 -1.4375 4.957031 -1.617188 5.1875 -1.984375 C 5.414062 -2.347656 5.53125 -2.882812 5.53125 -3.59375 C 5.53125 -4.300781 5.414062 -4.832031 5.1875 -5.1875 C 4.957031 -5.539062 4.582031 -5.71875 4.0625 -5.71875 C 3.539062 -5.71875 3.160156 -5.539062 2.921875 -5.1875 C 2.691406 -4.84375 2.578125 -4.3125 2.578125 -3.59375 Z M 7.53125 -3.59375 C 7.53125 -2.425781 7.222656 -1.515625 6.609375 -0.859375 C 5.992188 -0.203125 5.140625 0.125 4.046875 0.125 C 3.359375 0.125 2.75 -0.0234375 2.21875 -0.328125 C 1.695312 -0.628906 1.296875 -1.0625 1.015625 -1.625 C 0.734375 -2.1875 0.59375 -2.84375 0.59375 -3.59375 C 0.59375 -4.757812 0.894531 -5.664062 1.5 -6.3125 C 2.113281 -6.96875 2.972656 -7.296875 4.078125 -7.296875 C 4.765625 -7.296875 5.367188 -7.144531 5.890625 -6.84375 C 6.421875 -6.550781 6.828125 -6.125 7.109375 -5.5625 C 7.390625 -5 7.53125 -4.34375 7.53125 -3.59375 Z M 7.53125 -3.59375 "/></g></g></g><g fill="#444444" fill-opacity="1"><g transform="translate(253.562883, 149.960067)"><g/></g></g><g fill="#444444" fill-opacity="1"><g transform="translate(256.972347, 149.960067)"><g><path d="M 3.296875 0.125 C 2.453125 0.125 1.789062 -0.195312 1.3125 -0.84375 C 0.832031 -1.5 0.59375 -2.40625 0.59375 -3.5625 C 0.59375 -4.738281 0.835938 -5.65625 1.328125 -6.3125 C 1.816406 -6.96875 2.488281 -7.296875 3.34375 -7.296875 C 4.25 -7.296875 4.9375 -6.945312 5.40625 -6.25 L 5.46875 -6.25 C 5.375 -6.78125 5.328125 -7.253906 5.328125 -7.671875 L 5.328125 -9.96875 L 7.28125 -9.96875 L 7.28125 0 L 5.78125 0 L 5.40625 -0.921875 L 5.328125 -0.921875 C 4.878906 -0.222656 4.203125 0.125 3.296875 0.125 Z M 3.984375 -1.421875 C 4.484375 -1.421875 4.847656 -1.566406 5.078125 -1.859375 C 5.304688 -2.148438 5.429688 -2.644531 5.453125 -3.34375 L 5.453125 -3.5625 C 5.453125 -4.320312 5.332031 -4.867188 5.09375 -5.203125 C 4.863281 -5.535156 4.484375 -5.703125 3.953125 -5.703125 C 3.515625 -5.703125 3.171875 -5.515625 2.921875 -5.140625 C 2.679688 -4.773438 2.5625 -4.242188 2.5625 -3.546875 C 2.5625 -2.835938 2.679688 -2.304688 2.921875 -1.953125 C 3.171875 -1.597656 3.523438 -1.421875 3.984375 -1.421875 Z M 3.984375 -1.421875 "/></g></g></g><g fill="#444444" fill-opacity="1"><g transform="translate(265.278109, 149.960067)"><g><path d="M 2.578125 -3.59375 C 2.578125 -2.882812 2.691406 -2.347656 2.921875 -1.984375 C 3.160156 -1.617188 3.539062 -1.4375 4.0625 -1.4375 C 4.582031 -1.4375 4.957031 -1.617188 5.1875 -1.984375 C 5.414062 -2.347656 5.53125 -2.882812 5.53125 -3.59375 C 5.53125 -4.300781 5.414062 -4.832031 5.1875 -5.1875 C 4.957031 -5.539062 4.582031 -5.71875 4.0625 -5.71875 C 3.539062 -5.71875 3.160156 -5.539062 2.921875 -5.1875 C 2.691406 -4.84375 2.578125 -4.3125 2.578125 -3.59375 Z M 7.53125 -3.59375 C 7.53125 -2.425781 7.222656 -1.515625 6.609375 -0.859375 C 5.992188 -0.203125 5.140625 0.125 4.046875 0.125 C 3.359375 0.125 2.75 -0.0234375 2.21875 -0.328125 C 1.695312 -0.628906 1.296875 -1.0625 1.015625 -1.625 C 0.734375 -2.1875 0.59375 -2.84375 0.59375 -3.59375 C 0.59375 -4.757812 0.894531 -5.664062 1.5 -6.3125 C 2.113281 -6.96875 2.972656 -7.296875 4.078125 -7.296875 C 4.765625 -7.296875 5.367188 -7.144531 5.890625 -6.84375 C 6.421875 -6.550781 6.828125 -6.125 7.109375 -5.5625 C 7.390625 -5 7.53125 -4.34375 7.53125 -3.59375 Z M 7.53125 -3.59375 "/></g></g></g><g fill="#444444" fill-opacity="1"><g transform="translate(273.404426, 149.960067)"><g><path d="M 6.921875 0 L 6.359375 -2.5 L 5.625 -5.671875 L 5.578125 -5.671875 L 4.265625 0 L 2.171875 0 L 0.125 -7.171875 L 2.078125 -7.171875 L 2.90625 -4 C 3.039062 -3.425781 3.175781 -2.640625 3.3125 -1.640625 L 3.34375 -1.640625 C 3.363281 -1.960938 3.4375 -2.476562 3.5625 -3.1875 L 3.671875 -3.734375 L 4.5625 -7.171875 L 6.703125 -7.171875 L 7.546875 -3.734375 C 7.566406 -3.640625 7.59375 -3.5 7.625 -3.3125 C 7.664062 -3.125 7.703125 -2.925781 7.734375 -2.71875 C 7.765625 -2.519531 7.796875 -2.316406 7.828125 -2.109375 C 7.859375 -1.910156 7.875 -1.753906 7.875 -1.640625 L 7.921875 -1.640625 C 7.953125 -1.953125 8.015625 -2.375 8.109375 -2.90625 C 8.210938 -3.4375 8.285156 -3.800781 8.328125 -4 L 9.1875 -7.171875 L 11.109375 -7.171875 L 9.046875 0 Z M 6.921875 0 "/></g></g></g><g fill="#444444" fill-opacity="1"><g transform="translate(284.639, 149.960067)"><g><path d="M 7.640625 0 L 5.6875 0 L 5.6875 -4.1875 C 5.6875 -4.695312 5.59375 -5.082031 5.40625 -5.34375 C 5.226562 -5.601562 4.9375 -5.734375 4.53125 -5.734375 C 3.976562 -5.734375 3.582031 -5.550781 3.34375 -5.1875 C 3.101562 -4.820312 2.984375 -4.21875 2.984375 -3.375 L 2.984375 0 L 1.03125 0 L 1.03125 -7.171875 L 2.515625 -7.171875 L 2.78125 -6.25 L 2.890625 -6.25 C 3.109375 -6.59375 3.40625 -6.851562 3.78125 -7.03125 C 4.164062 -7.207031 4.601562 -7.296875 5.09375 -7.296875 C 5.925781 -7.296875 6.554688 -7.070312 6.984375 -6.625 C 7.421875 -6.175781 7.640625 -5.523438 7.640625 -4.671875 Z M 7.640625 0 "/></g></g></g><g fill="#444444" fill-opacity="1"><g transform="translate(293.2652, 149.960067)"><g><path d="M 2.984375 0 L 1.03125 0 L 1.03125 -9.96875 L 2.984375 -9.96875 Z M 2.984375 0 "/></g></g></g><g fill="#444444" fill-opacity="1"><g transform="translate(297.270686, 149.960067)"><g><path d="M 2.578125 -3.59375 C 2.578125 -2.882812 2.691406 -2.347656 2.921875 -1.984375 C 3.160156 -1.617188 3.539062 -1.4375 4.0625 -1.4375 C 4.582031 -1.4375 4.957031 -1.617188 5.1875 -1.984375 C 5.414062 -2.347656 5.53125 -2.882812 5.53125 -3.59375 C 5.53125 -4.300781 5.414062 -4.832031 5.1875 -5.1875 C 4.957031 -5.539062 4.582031 -5.71875 4.0625 -5.71875 C 3.539062 -5.71875 3.160156 -5.539062 2.921875 -5.1875 C 2.691406 -4.84375 2.578125 -4.3125 2.578125 -3.59375 Z M 7.53125 -3.59375 C 7.53125 -2.425781 7.222656 -1.515625 6.609375 -0.859375 C 5.992188 -0.203125 5.140625 0.125 4.046875 0.125 C 3.359375 0.125 2.75 -0.0234375 2.21875 -0.328125 C 1.695312 -0.628906 1.296875 -1.0625 1.015625 -1.625 C 0.734375 -2.1875 0.59375 -2.84375 0.59375 -3.59375 C 0.59375 -4.757812 0.894531 -5.664062 1.5 -6.3125 C 2.113281 -6.96875 2.972656 -7.296875 4.078125 -7.296875 C 4.765625 -7.296875 5.367188 -7.144531 5.890625 -6.84375 C 6.421875 -6.550781 6.828125 -6.125 7.109375 -5.5625 C 7.390625 -5 7.53125 -4.34375 7.53125 -3.59375 Z M 7.53125 -3.59375 "/></g></g></g><g fill="#444444" fill-opacity="1"><g transform="translate(305.397002, 149.960067)"><g><path d="M 5.578125 0 L 5.203125 -0.96875 L 5.140625 -0.96875 C 4.816406 -0.5625 4.476562 -0.273438 4.125 -0.109375 C 3.78125 0.046875 3.328125 0.125 2.765625 0.125 C 2.078125 0.125 1.535156 -0.0664062 1.140625 -0.453125 C 0.742188 -0.847656 0.546875 -1.410156 0.546875 -2.140625 C 0.546875 -2.898438 0.8125 -3.457031 1.34375 -3.8125 C 1.875 -4.175781 2.675781 -4.378906 3.75 -4.421875 L 5 -4.453125 L 5 -4.78125 C 5 -5.5 4.628906 -5.859375 3.890625 -5.859375 C 3.316406 -5.859375 2.640625 -5.6875 1.859375 -5.34375 L 1.21875 -6.671875 C 2.039062 -7.097656 2.953125 -7.3125 3.953125 -7.3125 C 4.921875 -7.3125 5.660156 -7.101562 6.171875 -6.6875 C 6.679688 -6.269531 6.9375 -5.632812 6.9375 -4.78125 L 6.9375 0 Z M 5 -3.3125 L 4.25 -3.296875 C 3.675781 -3.273438 3.25 -3.171875 2.96875 -2.984375 C 2.695312 -2.796875 2.5625 -2.507812 2.5625 -2.125 C 2.5625 -1.570312 2.875 -1.296875 3.5 -1.296875 C 3.957031 -1.296875 4.320312 -1.425781 4.59375 -1.6875 C 4.863281 -1.945312 5 -2.296875 5 -2.734375 Z M 5 -3.3125 "/></g></g></g><g fill="#444444" fill-opacity="1"><g transform="translate(313.324653, 149.960067)"><g><path d="M 3.296875 0.125 C 2.453125 0.125 1.789062 -0.195312 1.3125 -0.84375 C 0.832031 -1.5 0.59375 -2.40625 0.59375 -3.5625 C 0.59375 -4.738281 0.835938 -5.65625 1.328125 -6.3125 C 1.816406 -6.96875 2.488281 -7.296875 3.34375 -7.296875 C 4.25 -7.296875 4.9375 -6.945312 5.40625 -6.25 L 5.46875 -6.25 C 5.375 -6.78125 5.328125 -7.253906 5.328125 -7.671875 L 5.328125 -9.96875 L 7.28125 -9.96875 L 7.28125 0 L 5.78125 0 L 5.40625 -0.921875 L 5.328125 -0.921875 C 4.878906 -0.222656 4.203125 0.125 3.296875 0.125 Z M 3.984375 -1.421875 C 4.484375 -1.421875 4.847656 -1.566406 5.078125 -1.859375 C 5.304688 -2.148438 5.429688 -2.644531 5.453125 -3.34375 L 5.453125 -3.5625 C 5.453125 -4.320312 5.332031 -4.867188 5.09375 -5.203125 C 4.863281 -5.535156 4.484375 -5.703125 3.953125 -5.703125 C 3.515625 -5.703125 3.171875 -5.515625 2.921875 -5.140625 C 2.679688 -4.773438 2.5625 -4.242188 2.5625 -3.546875 C 2.5625 -2.835938 2.679688 -2.304688 2.921875 -1.953125 C 3.171875 -1.597656 3.523438 -1.421875 3.984375 -1.421875 Z M 3.984375 -1.421875 "/></g></g></g><g fill="#444444" fill-opacity="1"><g transform="translate(321.630415, 149.960067)"><g/></g></g><g fill="#444444" fill-opacity="1"><g transform="translate(325.039879, 149.960067)"><g><path d="M 2.734375 0 L 0 -7.171875 L 2.046875 -7.171875 L 3.421875 -3.078125 C 3.578125 -2.566406 3.675781 -2.078125 3.71875 -1.609375 L 3.75 -1.609375 C 3.769531 -2.023438 3.867188 -2.515625 4.046875 -3.078125 L 5.421875 -7.171875 L 7.46875 -7.171875 L 4.734375 0 Z M 2.734375 0 "/></g></g></g><g fill="#444444" fill-opacity="1"><g transform="translate(332.506098, 149.960067)"><g><path d="M 0.9375 -9.015625 C 0.9375 -9.648438 1.289062 -9.96875 2 -9.96875 C 2.707031 -9.96875 3.0625 -9.648438 3.0625 -9.015625 C 3.0625 -8.710938 2.972656 -8.476562 2.796875 -8.3125 C 2.617188 -8.144531 2.351562 -8.0625 2 -8.0625 C 1.289062 -8.0625 0.9375 -8.378906 0.9375 -9.015625 Z M 2.984375 0 L 1.03125 0 L 1.03125 -7.171875 L 2.984375 -7.171875 Z M 2.984375 0 "/></g></g></g><g fill="#444444" fill-opacity="1"><g transform="translate(336.511583, 149.960067)"><g><path d="M 3.296875 0.125 C 2.453125 0.125 1.789062 -0.195312 1.3125 -0.84375 C 0.832031 -1.5 0.59375 -2.40625 0.59375 -3.5625 C 0.59375 -4.738281 0.835938 -5.65625 1.328125 -6.3125 C 1.816406 -6.96875 2.488281 -7.296875 3.34375 -7.296875 C 4.25 -7.296875 4.9375 -6.945312 5.40625 -6.25 L 5.46875 -6.25 C 5.375 -6.78125 5.328125 -7.253906 5.328125 -7.671875 L 5.328125 -9.96875 L 7.28125 -9.96875 L 7.28125 0 L 5.78125 0 L 5.40625 -0.921875 L 5.328125 -0.921875 C 4.878906 -0.222656 4.203125 0.125 3.296875 0.125 Z M 3.984375 -1.421875 C 4.484375 -1.421875 4.847656 -1.566406 5.078125 -1.859375 C 5.304688 -2.148438 5.429688 -2.644531 5.453125 -3.34375 L 5.453125 -3.5625 C 5.453125 -4.320312 5.332031 -4.867188 5.09375 -5.203125 C 4.863281 -5.535156 4.484375 -5.703125 3.953125 -5.703125 C 3.515625 -5.703125 3.171875 -5.515625 2.921875 -5.140625 C 2.679688 -4.773438 2.5625 -4.242188 2.5625 -3.546875 C 2.5625 -2.835938 2.679688 -2.304688 2.921875 -1.953125 C 3.171875 -1.597656 3.523438 -1.421875 3.984375 -1.421875 Z M 3.984375 -1.421875 "/></g></g></g><g fill="#444444" fill-opacity="1"><g transform="translate(344.817345, 149.960067)"><g><path d="M 4 -5.90625 C 3.582031 -5.90625 3.253906 -5.773438 3.015625 -5.515625 C 2.785156 -5.253906 2.648438 -4.878906 2.609375 -4.390625 L 5.359375 -4.390625 C 5.347656 -4.878906 5.21875 -5.253906 4.96875 -5.515625 C 4.726562 -5.773438 4.40625 -5.90625 4 -5.90625 Z M 4.265625 0.125 C 3.109375 0.125 2.207031 -0.191406 1.5625 -0.828125 C 0.914062 -1.460938 0.59375 -2.363281 0.59375 -3.53125 C 0.59375 -4.726562 0.890625 -5.65625 1.484375 -6.3125 C 2.085938 -6.96875 2.921875 -7.296875 3.984375 -7.296875 C 4.992188 -7.296875 5.78125 -7.003906 6.34375 -6.421875 C 6.90625 -5.847656 7.1875 -5.054688 7.1875 -4.046875 L 7.1875 -3.09375 L 2.5625 -3.09375 C 2.59375 -2.539062 2.757812 -2.109375 3.0625 -1.796875 C 3.375 -1.484375 3.804688 -1.328125 4.359375 -1.328125 C 4.785156 -1.328125 5.191406 -1.367188 5.578125 -1.453125 C 5.960938 -1.546875 6.363281 -1.691406 6.78125 -1.890625 L 6.78125 -0.375 C 6.445312 -0.207031 6.082031 -0.0820312 5.6875 0 C 5.300781 0.0820312 4.828125 0.125 4.265625 0.125 Z M 4.265625 0.125 "/></g></g></g><g fill="#444444" fill-opacity="1"><g transform="translate(352.571965, 149.960067)"><g><path d="M 2.578125 -3.59375 C 2.578125 -2.882812 2.691406 -2.347656 2.921875 -1.984375 C 3.160156 -1.617188 3.539062 -1.4375 4.0625 -1.4375 C 4.582031 -1.4375 4.957031 -1.617188 5.1875 -1.984375 C 5.414062 -2.347656 5.53125 -2.882812 5.53125 -3.59375 C 5.53125 -4.300781 5.414062 -4.832031 5.1875 -5.1875 C 4.957031 -5.539062 4.582031 -5.71875 4.0625 -5.71875 C 3.539062 -5.71875 3.160156 -5.539062 2.921875 -5.1875 C 2.691406 -4.84375 2.578125 -4.3125 2.578125 -3.59375 Z M 7.53125 -3.59375 C 7.53125 -2.425781 7.222656 -1.515625 6.609375 -0.859375 C 5.992188 -0.203125 5.140625 0.125 4.046875 0.125 C 3.359375 0.125 2.75 -0.0234375 2.21875 -0.328125 C 1.695312 -0.628906 1.296875 -1.0625 1.015625 -1.625 C 0.734375 -2.1875 0.59375 -2.84375 0.59375 -3.59375 C 0.59375 -4.757812 0.894531 -5.664062 1.5 -6.3125 C 2.113281 -6.96875 2.972656 -7.296875 4.078125 -7.296875 C 4.765625 -7.296875 5.367188 -7.144531 5.890625 -6.84375 C 6.421875 -6.550781 6.828125 -6.125 7.109375 -5.5625 C 7.390625 -5 7.53125 -4.34375 7.53125 -3.59375 Z M 7.53125 -3.59375 "/></g></g></g><g fill="#444444" fill-opacity="1"><g transform="translate(360.698259, 149.960067)"><g><path d="M 6.03125 -2.125 C 6.03125 -1.394531 5.773438 -0.835938 5.265625 -0.453125 C 4.753906 -0.0664062 3.988281 0.125 2.96875 0.125 C 2.445312 0.125 2 0.0859375 1.625 0.015625 C 1.257812 -0.046875 0.921875 -0.144531 0.609375 -0.28125 L 0.609375 -1.90625 C 0.960938 -1.726562 1.367188 -1.582031 1.828125 -1.46875 C 2.285156 -1.351562 2.6875 -1.296875 3.03125 -1.296875 C 3.738281 -1.296875 4.09375 -1.503906 4.09375 -1.921875 C 4.09375 -2.066406 4.046875 -2.1875 3.953125 -2.28125 C 3.859375 -2.382812 3.695312 -2.492188 3.46875 -2.609375 C 3.238281 -2.734375 2.929688 -2.878906 2.546875 -3.046875 C 1.992188 -3.273438 1.585938 -3.488281 1.328125 -3.6875 C 1.066406 -3.882812 0.878906 -4.109375 0.765625 -4.359375 C 0.648438 -4.617188 0.59375 -4.929688 0.59375 -5.296875 C 0.59375 -5.929688 0.835938 -6.421875 1.328125 -6.765625 C 1.816406 -7.117188 2.515625 -7.296875 3.421875 -7.296875 C 4.285156 -7.296875 5.128906 -7.109375 5.953125 -6.734375 L 5.359375 -5.328125 C 4.992188 -5.484375 4.65625 -5.609375 4.34375 -5.703125 C 4.039062 -5.796875 3.722656 -5.84375 3.390625 -5.84375 C 2.816406 -5.84375 2.53125 -5.691406 2.53125 -5.390625 C 2.53125 -5.210938 2.625 -5.054688 2.8125 -4.921875 C 3 -4.796875 3.40625 -4.609375 4.03125 -4.359375 C 4.59375 -4.128906 5.003906 -3.914062 5.265625 -3.71875 C 5.523438 -3.519531 5.71875 -3.289062 5.84375 -3.03125 C 5.96875 -2.78125 6.03125 -2.476562 6.03125 -2.125 Z M 6.03125 -2.125 "/></g></g></g><g fill="#444444" fill-opacity="1"><g transform="translate(367.222395, 149.960067)"><g/></g></g><g fill="#444444" fill-opacity="1"><g transform="translate(370.631859, 149.960067)"><g><path d="M 2.578125 -3.59375 C 2.578125 -2.882812 2.691406 -2.347656 2.921875 -1.984375 C 3.160156 -1.617188 3.539062 -1.4375 4.0625 -1.4375 C 4.582031 -1.4375 4.957031 -1.617188 5.1875 -1.984375 C 5.414062 -2.347656 5.53125 -2.882812 5.53125 -3.59375 C 5.53125 -4.300781 5.414062 -4.832031 5.1875 -5.1875 C 4.957031 -5.539062 4.582031 -5.71875 4.0625 -5.71875 C 3.539062 -5.71875 3.160156 -5.539062 2.921875 -5.1875 C 2.691406 -4.84375 2.578125 -4.3125 2.578125 -3.59375 Z M 7.53125 -3.59375 C 7.53125 -2.425781 7.222656 -1.515625 6.609375 -0.859375 C 5.992188 -0.203125 5.140625 0.125 4.046875 0.125 C 3.359375 0.125 2.75 -0.0234375 2.21875 -0.328125 C 1.695312 -0.628906 1.296875 -1.0625 1.015625 -1.625 C 0.734375 -2.1875 0.59375 -2.84375 0.59375 -3.59375 C 0.59375 -4.757812 0.894531 -5.664062 1.5 -6.3125 C 2.113281 -6.96875 2.972656 -7.296875 4.078125 -7.296875 C 4.765625 -7.296875 5.367188 -7.144531 5.890625 -6.84375 C 6.421875 -6.550781 6.828125 -6.125 7.109375 -5.5625 C 7.390625 -5 7.53125 -4.34375 7.53125 -3.59375 Z M 7.53125 -3.59375 "/></g></g></g><g fill="#444444" fill-opacity="1"><g transform="translate(378.758176, 149.960067)"><g><path d="M 4.984375 -5.703125 L 3.296875 -5.703125 L 3.296875 0 L 1.34375 0 L 1.34375 -5.703125 L 0.265625 -5.703125 L 0.265625 -6.640625 L 1.34375 -7.171875 L 1.34375 -7.6875 C 1.34375 -8.507812 1.539062 -9.109375 1.9375 -9.484375 C 2.34375 -9.859375 2.988281 -10.046875 3.875 -10.046875 C 4.550781 -10.046875 5.148438 -9.941406 5.671875 -9.734375 L 5.171875 -8.3125 C 4.773438 -8.425781 4.410156 -8.484375 4.078125 -8.484375 C 3.804688 -8.484375 3.609375 -8.398438 3.484375 -8.234375 C 3.359375 -8.078125 3.296875 -7.867188 3.296875 -7.609375 L 3.296875 -7.171875 L 4.984375 -7.171875 Z M 4.984375 -5.703125 "/></g></g></g><g fill="#444444" fill-opacity="1"><g transform="translate(383.840334, 149.960067)"><g><path d="M 4.984375 -5.703125 L 3.296875 -5.703125 L 3.296875 0 L 1.34375 0 L 1.34375 -5.703125 L 0.265625 -5.703125 L 0.265625 -6.640625 L 1.34375 -7.171875 L 1.34375 -7.6875 C 1.34375 -8.507812 1.539062 -9.109375 1.9375 -9.484375 C 2.34375 -9.859375 2.988281 -10.046875 3.875 -10.046875 C 4.550781 -10.046875 5.148438 -9.941406 5.671875 -9.734375 L 5.171875 -8.3125 C 4.773438 -8.425781 4.410156 -8.484375 4.078125 -8.484375 C 3.804688 -8.484375 3.609375 -8.398438 3.484375 -8.234375 C 3.359375 -8.078125 3.296875 -7.867188 3.296875 -7.609375 L 3.296875 -7.171875 L 4.984375 -7.171875 Z M 4.984375 -5.703125 "/></g></g></g><g fill="#444444" fill-opacity="1"><g transform="translate(388.922492, 149.960067)"><g/></g></g><g fill="#444444" fill-opacity="1"><g transform="translate(392.331956, 149.960067)"><g><path d="M 0.9375 -9.015625 C 0.9375 -9.648438 1.289062 -9.96875 2 -9.96875 C 2.707031 -9.96875 3.0625 -9.648438 3.0625 -9.015625 C 3.0625 -8.710938 2.972656 -8.476562 2.796875 -8.3125 C 2.617188 -8.144531 2.351562 -8.0625 2 -8.0625 C 1.289062 -8.0625 0.9375 -8.378906 0.9375 -9.015625 Z M 2.984375 0 L 1.03125 0 L 1.03125 -7.171875 L 2.984375 -7.171875 Z M 2.984375 0 "/></g></g></g><g fill="#444444" fill-opacity="1"><g transform="translate(396.337441, 149.960067)"><g><path d="M 7.640625 0 L 5.6875 0 L 5.6875 -4.1875 C 5.6875 -4.695312 5.59375 -5.082031 5.40625 -5.34375 C 5.226562 -5.601562 4.9375 -5.734375 4.53125 -5.734375 C 3.976562 -5.734375 3.582031 -5.550781 3.34375 -5.1875 C 3.101562 -4.820312 2.984375 -4.21875 2.984375 -3.375 L 2.984375 0 L 1.03125 0 L 1.03125 -7.171875 L 2.515625 -7.171875 L 2.78125 -6.25 L 2.890625 -6.25 C 3.109375 -6.59375 3.40625 -6.851562 3.78125 -7.03125 C 4.164062 -7.207031 4.601562 -7.296875 5.09375 -7.296875 C 5.925781 -7.296875 6.554688 -7.070312 6.984375 -6.625 C 7.421875 -6.175781 7.640625 -5.523438 7.640625 -4.671875 Z M 7.640625 0 "/></g></g></g><g fill="#444444" fill-opacity="1"><g transform="translate(404.963653, 149.960067)"><g><path d="M 4.046875 -1.421875 C 4.390625 -1.421875 4.800781 -1.5 5.28125 -1.65625 L 5.28125 -0.203125 C 4.789062 0.015625 4.191406 0.125 3.484375 0.125 C 2.703125 0.125 2.128906 -0.0703125 1.765625 -0.46875 C 1.410156 -0.863281 1.234375 -1.457031 1.234375 -2.25 L 1.234375 -5.703125 L 0.296875 -5.703125 L 0.296875 -6.53125 L 1.375 -7.171875 L 1.9375 -8.6875 L 3.1875 -8.6875 L 3.1875 -7.171875 L 5.203125 -7.171875 L 5.203125 -5.703125 L 3.1875 -5.703125 L 3.1875 -2.25 C 3.1875 -1.96875 3.265625 -1.757812 3.421875 -1.625 C 3.578125 -1.488281 3.785156 -1.421875 4.046875 -1.421875 Z M 4.046875 -1.421875 "/></g></g></g><g fill="#444444" fill-opacity="1"><g transform="translate(410.66103, 149.960067)"><g><path d="M 4 -5.90625 C 3.582031 -5.90625 3.253906 -5.773438 3.015625 -5.515625 C 2.785156 -5.253906 2.648438 -4.878906 2.609375 -4.390625 L 5.359375 -4.390625 C 5.347656 -4.878906 5.21875 -5.253906 4.96875 -5.515625 C 4.726562 -5.773438 4.40625 -5.90625 4 -5.90625 Z M 4.265625 0.125 C 3.109375 0.125 2.207031 -0.191406 1.5625 -0.828125 C 0.914062 -1.460938 0.59375 -2.363281 0.59375 -3.53125 C 0.59375 -4.726562 0.890625 -5.65625 1.484375 -6.3125 C 2.085938 -6.96875 2.921875 -7.296875 3.984375 -7.296875 C 4.992188 -7.296875 5.78125 -7.003906 6.34375 -6.421875 C 6.90625 -5.847656 7.1875 -5.054688 7.1875 -4.046875 L 7.1875 -3.09375 L 2.5625 -3.09375 C 2.59375 -2.539062 2.757812 -2.109375 3.0625 -1.796875 C 3.375 -1.484375 3.804688 -1.328125 4.359375 -1.328125 C 4.785156 -1.328125 5.191406 -1.367188 5.578125 -1.453125 C 5.960938 -1.546875 6.363281 -1.691406 6.78125 -1.890625 L 6.78125 -0.375 C 6.445312 -0.207031 6.082031 -0.0820312 5.6875 0 C 5.300781 0.0820312 4.828125 0.125 4.265625 0.125 Z M 4.265625 0.125 "/></g></g></g><g fill="#444444" fill-opacity="1"><g transform="translate(418.415649, 149.960067)"><g><path d="M 5.03125 -7.296875 C 5.289062 -7.296875 5.507812 -7.273438 5.6875 -7.234375 L 5.53125 -5.40625 C 5.375 -5.445312 5.179688 -5.46875 4.953125 -5.46875 C 4.335938 -5.46875 3.851562 -5.304688 3.5 -4.984375 C 3.15625 -4.671875 2.984375 -4.222656 2.984375 -3.640625 L 2.984375 0 L 1.03125 0 L 1.03125 -7.171875 L 2.5 -7.171875 L 2.796875 -5.953125 L 2.890625 -5.953125 C 3.109375 -6.359375 3.40625 -6.679688 3.78125 -6.921875 C 4.164062 -7.171875 4.582031 -7.296875 5.03125 -7.296875 Z M 5.03125 -7.296875 "/></g></g></g><g fill="#444444" fill-opacity="1"><g transform="translate(424.375814, 149.960067)"><g><path d="M 7.640625 0 L 5.6875 0 L 5.6875 -4.1875 C 5.6875 -4.695312 5.59375 -5.082031 5.40625 -5.34375 C 5.226562 -5.601562 4.9375 -5.734375 4.53125 -5.734375 C 3.976562 -5.734375 3.582031 -5.550781 3.34375 -5.1875 C 3.101562 -4.820312 2.984375 -4.21875 2.984375 -3.375 L 2.984375 0 L 1.03125 0 L 1.03125 -7.171875 L 2.515625 -7.171875 L 2.78125 -6.25 L 2.890625 -6.25 C 3.109375 -6.59375 3.40625 -6.851562 3.78125 -7.03125 C 4.164062 -7.207031 4.601562 -7.296875 5.09375 -7.296875 C 5.925781 -7.296875 6.554688 -7.070312 6.984375 -6.625 C 7.421875 -6.175781 7.640625 -5.523438 7.640625 -4.671875 Z M 7.640625 0 "/></g></g></g><g fill="#444444" fill-opacity="1"><g transform="translate(433.002003, 149.960067)"><g><path d="M 4 -5.90625 C 3.582031 -5.90625 3.253906 -5.773438 3.015625 -5.515625 C 2.785156 -5.253906 2.648438 -4.878906 2.609375 -4.390625 L 5.359375 -4.390625 C 5.347656 -4.878906 5.21875 -5.253906 4.96875 -5.515625 C 4.726562 -5.773438 4.40625 -5.90625 4 -5.90625 Z M 4.265625 0.125 C 3.109375 0.125 2.207031 -0.191406 1.5625 -0.828125 C 0.914062 -1.460938 0.59375 -2.363281 0.59375 -3.53125 C 0.59375 -4.726562 0.890625 -5.65625 1.484375 -6.3125 C 2.085938 -6.96875 2.921875 -7.296875 3.984375 -7.296875 C 4.992188 -7.296875 5.78125 -7.003906 6.34375 -6.421875 C 6.90625 -5.847656 7.1875 -5.054688 7.1875 -4.046875 L 7.1875 -3.09375 L 2.5625 -3.09375 C 2.59375 -2.539062 2.757812 -2.109375 3.0625 -1.796875 C 3.375 -1.484375 3.804688 -1.328125 4.359375 -1.328125 C 4.785156 -1.328125 5.191406 -1.367188 5.578125 -1.453125 C 5.960938 -1.546875 6.363281 -1.691406 6.78125 -1.890625 L 6.78125 -0.375 C 6.445312 -0.207031 6.082031 -0.0820312 5.6875 0 C 5.300781 0.0820312 4.828125 0.125 4.265625 0.125 Z M 4.265625 0.125 "/></g></g></g><g fill="#444444" fill-opacity="1"><g transform="translate(440.7566, 149.960067)"><g><path d="M 4.046875 -1.421875 C 4.390625 -1.421875 4.800781 -1.5 5.28125 -1.65625 L 5.28125 -0.203125 C 4.789062 0.015625 4.191406 0.125 3.484375 0.125 C 2.703125 0.125 2.128906 -0.0703125 1.765625 -0.46875 C 1.410156 -0.863281 1.234375 -1.457031 1.234375 -2.25 L 1.234375 -5.703125 L 0.296875 -5.703125 L 0.296875 -6.53125 L 1.375 -7.171875 L 1.9375 -8.6875 L 3.1875 -8.6875 L 3.1875 -7.171875 L 5.203125 -7.171875 L 5.203125 -5.703125 L 3.1875 -5.703125 L 3.1875 -2.25 C 3.1875 -1.96875 3.265625 -1.757812 3.421875 -1.625 C 3.578125 -1.488281 3.785156 -1.421875 4.046875 -1.421875 Z M 4.046875 -1.421875 "/></g></g></g></svg>